# xmcd
#
# Track frame offsets:
#	150
#	11390
#	23680
#	33025
#	43912
#	54202
#	63700
#	75327
#	87740
#	99180
#	109507
#	121990
#	133905
#	145485
#
# Disc length: 2155 seconds
#
# Revision: 4
# Processed by: cddbd v1.4PL0 Copyright (c) Steve Scherf et al.
# Submitted via: audiograbber 1.82.01
#
DISCID=af08690e
DTITLE=Various Country Artists - When You're Hot You're Country
DYEAR=1994
DGENRE=Country
TTITLE0=George Jones - Four-0-thirty three
TTITLE1=Johnny Cash - I walk the line
TTITLE2=Feron Young - Hello walls
TTITLE3=Roger Miller - King of the road
TTITLE4=Jerry Lee Lewis - I love you so much it hurts
TTITLE5=Jeannie C. Riley - The girl most likely
TTITLE6=Patsy Cline - I've loved and lost again
TTITLE7=George Jones - If my heart had windows
TTITLE8=Waylon Jennings - Sally was a good old girl
TTITLE9=Johnny Paycheck - A11
TTITLE10=Flatt and Scruggs - Doin' my time
TTITLE11=Wynn Stewart - Wishful thinking
TTITLE12=Johnny Cash - Thanks a lot
TTITLE13=Bill Anderson - Once more
EXTD=
EXTT0=
EXTT1=
EXTT2=
EXTT3=
EXTT4=
EXTT5=
EXTT6=
EXTT7=
EXTT8=
EXTT9=
EXTT10=
EXTT11=
EXTT12=
EXTT13=
PLAYORDER=
